# xmcd
#
# Track frame offsets:
#	182
#	9220
#	21622
#	31312
#	48147
#	57327
#	70025
#	82105
#	91927
#	104655
#
# Disc length: 1568 seconds
# Revision: 0
# Processed by: cddbd v1.5.2PL0 Copyright (c) Steve Scherf et al.
# Submitted via: dBpowerAMP V12.0
#
DISCID=7a061e0a
DTITLE=Jimmy Walker and The Whiskey Blues Band - Real Country
DYEAR=1900
DGENRE=Country
TTITLE0=Kick Me When I'm Down
TTITLE1=Dan
TTITLE2=Whiskey Blues
TTITLE3=Old Pictures And Memories
TTITLE4=Can't Live Another Day Like This
TTITLE5=Night Time Places
TTITLE6=Whiskey Versus Heartache
TTITLE7=They Play Country Music (In Heaven)
TTITLE8=The Wreath
TTITLE9=Things Will Be Better Next Year
EXTD=
EXTT0=
EXTT1=
EXTT2=
EXTT3=
EXTT4=
EXTT5=
EXTT6=
EXTT7=
EXTT8=
EXTT9=
PLAYORDER=
